<svg height="512" width="512" xmlns="http://www.w3.org/2000/svg"><path d="M450.725 190.92c-.14-4.9-.33-9.59-.59-15.39-.91-20.73-4.26-34.98-9.06-47.33-4.96-13.11-12.58-24.84-22.56-34.6-9.75-9.91-21.56-17.61-34.52-22.48-5.55-2.14-11.45-4-18.13-5.48-8.26-1.83-17.72-3.09-29.19-3.59-20.88-.99-27.51-1.22-80.46-1.22-52.96 0-59.59.23-80.39 1.14-20.73.92-34.98 4.27-47.32 9.07-13.11 4.95-24.84 12.58-34.6 22.56-9.9 9.76-17.6 21.57-22.48 34.53-4.8 12.42-8.15 26.6-9.06 47.33-.27 5.82-.49 10.54-.66 15.46-.44 12.72-.56 26.82-.56 65.02 0 38.21.12 52.31.53 65.01.16 4.9.36 9.6.61 15.4.91 20.73 4.27 34.98 9.07 47.33 4.95 13.11 12.65 24.85 22.55 34.6 9.76 9.91 21.57 17.61 34.52 22.49 12.42 4.8 26.59 8.15 47.32 9.07 20.8.91 27.43 1.14 80.39 1.14s59.59-.23 80.39-1.14c11.33-.5 20.72-1.73 28.93-3.53 6.8-1.48 12.79-3.36 18.39-5.54a99.78 99.78 0 0057.07-57.09c4.8-12.42 8.16-26.6 9.07-47.33.25-5.8.45-10.5.61-15.4.41-12.7.53-26.8.53-65.01 0-38.22-.04-52.32-.4-65.02z" fill="#ff6b81"/><path d="M451.125 255.94c0 38.21-.12 52.31-.53 65.01-.16 4.9-.36 9.6-.61 15.4-.91 20.73-4.27 34.91-9.07 47.33a99.78 99.78 0 01-57.07 57.09c-5.6 2.18-11.59 4.06-18.39 5.54a103.701 103.701 0 0055.06-57.58c4.99-12.91 8.48-27.65 9.43-49.2.95-21.63 1.18-28.52 1.18-83.59 0-55.06-.08-61.95-1.03-83.58-.95-21.55-4.43-36.37-9.42-49.21-5.15-13.62-13.07-25.82-23.45-35.97a100.043 100.043 0 00-31.36-21.54 124.75 124.75 0 0118.13 5.48c12.96 4.87 24.77 12.57 34.52 22.48 9.98 9.76 17.6 21.49 22.56 34.6 4.8 12.35 8.15 26.6 9.06 47.33.26 5.8.45 10.49.59 15.39.36 12.7.4 26.8.4 65.02z" fill="#ed2061"/><path d="M450.725 190.92H61.705c.17-4.92.39-9.64.66-15.46.91-20.73 4.26-34.91 9.06-47.33 4.88-12.96 12.58-24.77 22.48-34.53 9.76-9.98 21.49-17.61 34.6-22.56 12.34-4.8 26.59-8.15 47.32-9.07 20.8-.91 27.43-1.14 80.39-1.14 52.95 0 59.58.23 80.46 1.22 11.47.5 20.93 1.76 29.19 3.59a124.75 124.75 0 0118.13 5.48c12.96 4.87 24.77 12.57 34.52 22.48 9.98 9.76 17.6 21.49 22.56 34.6 4.8 12.35 8.15 26.6 9.06 47.33.26 5.8.45 10.49.59 15.39z" fill="#9090fb"/><path d="M450.595 320.95c-.16 4.9-.36 9.6-.61 15.4-.91 20.73-4.27 34.91-9.07 47.33a99.78 99.78 0 01-57.07 57.09c-5.6 2.18-11.59 4.06-18.39 5.54-8.21 1.8-17.6 3.03-28.93 3.53-20.8.91-27.43 1.14-80.39 1.14s-59.59-.23-80.39-1.14c-20.73-.92-34.9-4.27-47.32-9.07-12.95-4.88-24.76-12.58-34.52-22.49-9.9-9.75-17.6-21.49-22.55-34.6-4.8-12.35-8.16-26.6-9.07-47.33-.25-5.8-.45-10.5-.61-15.4z" fill="#fbdf63"/><path d="M430.655 320.95h19.94c-.16 4.9-.36 9.6-.61 15.4-.91 20.73-4.27 34.91-9.07 47.33a99.78 99.78 0 01-57.07 57.09c-5.6 2.18-11.59 4.06-18.39 5.54a103.701 103.701 0 0055.06-57.58c4.99-12.91 8.48-27.65 9.43-49.2.31-7.03.54-12.5.71-18.58z" fill="#ffa402"/><path d="M397.225 87.18a100.043 100.043 0 00-31.36-21.54 124.75 124.75 0 0118.13 5.48c12.96 4.87 24.77 12.57 34.52 22.48 9.98 9.76 17.6 21.49 22.56 34.6 4.8 12.35 8.15 26.6 9.06 47.33.26 5.8.45 10.49.59 15.39h-19.95c-.15-6.07-.37-11.53-.68-18.56-.95-21.55-4.43-36.37-9.42-49.21-5.15-13.62-13.07-25.82-23.45-35.97z" fill="#6c5fea"/><path d="M191.941 24.947v105.59c0 9.64-7.81 17.44-17.44 17.44h-30.502l-18.28 26.35-18.28-26.35H24.942c-9.64 0-17.44-7.8-17.44-17.44V24.947c0-9.63 7.8-17.44 17.44-17.44h149.559c9.63 0 17.44 7.81 17.44 17.44z" fill="#4dd4f7"/><path d="M191.941 24.947v105.59c0 9.64-7.81 17.44-17.44 17.44h-20c9.63 0 17.44-7.8 17.44-17.44V24.947c0-9.63-7.81-17.44-17.44-17.44h20c9.63 0 17.44 7.81 17.44 17.44z" fill="#00c2f3"/><path d="M128.463 53.572c-6.797-6.798-17.826-6.789-24.634.018l-4.109 4.109-4.109-4.109c-6.808-6.808-17.837-6.816-24.634-.018-6.797 6.797-6.789 17.826.018 24.634l28.724 28.724 28.724-28.724c6.81-6.808 6.818-17.837.02-24.634z" fill="#fff"/><path d="M504.5 415.42v73.65c0 8.52-6.9 15.43-15.41 15.43H343.051c-8.52 0-15.42-6.91-15.42-15.43V368.38l41.59 31.62H489.09c8.51 0 15.41 6.9 15.41 15.42z" fill="#d9f0f4"/><path d="M504.5 415.42v73.65c0 8.52-6.9 15.43-15.41 15.43h-20c8.51 0 15.41-6.91 15.41-15.43v-73.65c0-8.52-6.9-15.42-15.41-15.42h20c8.51 0 15.41 6.9 15.41 15.42z" fill="#bae1e5"/><ellipse cx="255.973" cy="255.904" fill="#fff" rx="97.351" ry="97.392"/><ellipse cx="372.798" cy="144.558" fill="#fff" rx="19.999" ry="20.008"/><path d="M255.973 323.284c-37.137 0-67.351-30.227-67.351-67.38s30.214-67.38 67.351-67.38 67.351 30.227 67.351 67.38-30.214 67.38-67.351 67.38z" fill="#56788b"/><path d="M226.465 68.37h.028c7.974-.029 17.64-.041 29.719-.041 52.586 0 59.462.231 80.137 1.213 17.78.784 31.642 3.427 45.005 8.595 11.862 4.465 22.864 11.632 31.816 20.727l.103.102c9.188 8.979 16.181 19.708 20.809 31.955 5.135 13.208 7.775 27.07 8.563 44.945a7.5 7.5 0 0014.986-.661c-.864-19.583-3.815-34.917-9.544-49.652-5.372-14.218-13.54-26.755-24.277-37.263-10.459-10.609-23.311-18.973-37.108-24.167-14.887-5.757-30.213-8.708-49.667-9.565-20.937-.994-27.894-1.229-80.822-1.229-12.101 0-21.786.012-29.773.041a7.5 7.5 0 00-7.473 7.527 7.499 7.499 0 007.498 7.473zm211.669 299.498a7.5 7.5 0 0014.527 3.734c2.662-10.359 4.238-21.781 4.818-34.921.93-21.198 1.149-28.202 1.149-80.737 0-23.194-.016-36.843-.1-47.071-.034-4.142-3.435-7.51-7.562-7.438a7.499 7.499 0 00-7.438 7.562c.084 10.176.1 23.794.1 46.947 0 52.219-.217 59.148-1.136 80.078-.532 12.087-1.958 22.504-4.358 31.846zm-142.49 75.521h-.053c-9.097.063-21.265.091-39.454.091-52.295 0-59.208-.217-80.06-1.136-17.78-.784-31.643-3.428-45.008-8.595-11.863-4.466-22.865-11.633-31.816-20.727l-.082-.082c-9.24-9.101-16.239-19.836-20.826-31.975-5.137-13.214-7.779-27.076-8.566-44.943-.919-20.932-1.136-27.861-1.136-80.08 0-46.459.186-57.268.873-72.79a7.5 7.5 0 00-7.162-7.824c-4.094-.186-7.64 3.023-7.823 7.161-.698 15.783-.888 26.704-.888 73.453 0 52.536.22 59.54 1.149 80.739.863 19.577 3.815 34.911 9.547 49.652 5.326 14.097 13.49 26.63 24.267 37.254 10.459 10.612 23.313 18.979 37.116 24.175 14.89 5.756 30.216 8.707 49.695 9.565 21.118.931 28.106 1.151 80.72 1.151 18.226 0 30.425-.028 39.558-.091a7.5 7.5 0 00-.051-14.998z"/><path d="M169.192 211.086a7.503 7.503 0 00-9.828 3.988c-5.469 12.938-8.242 26.674-8.242 40.83 0 57.837 47.036 104.892 104.851 104.892s104.851-47.054 104.851-104.892-47.036-104.892-104.851-104.892c-30.084 0-58.758 12.956-78.669 35.546a7.5 7.5 0 1011.252 9.918c17.065-19.361 41.638-30.465 67.417-30.465 49.544 0 89.851 40.325 89.851 89.892s-40.307 89.892-89.851 89.892-89.851-40.325-89.851-89.892c0-12.138 2.375-23.91 7.059-34.989a7.5 7.5 0 00-3.989-9.828z"/><path d="M255.973 330.784c41.273 0 74.852-33.591 74.852-74.88s-33.578-74.88-74.852-74.88c-41.272 0-74.851 33.591-74.851 74.88s33.578 74.88 74.851 74.88zm0-134.76c33.002 0 59.852 26.862 59.852 59.88s-26.85 59.88-59.852 59.88-59.851-26.862-59.851-59.88 26.849-59.88 59.851-59.88zm144.325-51.466c0-15.168-12.336-27.508-27.499-27.508s-27.5 12.34-27.5 27.508 12.337 27.508 27.5 27.508 27.499-12.34 27.499-27.508zm-39.999 0c0-6.897 5.607-12.508 12.5-12.508 6.892 0 12.499 5.611 12.499 12.508s-5.607 12.508-12.499 12.508c-6.893-.001-12.5-5.611-12.5-12.508zm128.783 247.927H371.747l-39.573-30.098a7.5 7.5 0 00-12.04 5.969v120.708c0 12.646 10.28 22.935 22.917 22.935h16.233c4.143 0 7.5-3.358 7.5-7.5s-3.357-7.5-7.5-7.5h-16.233c-4.365 0-7.917-3.56-7.917-7.935v-105.58l29.545 22.471a7.497 7.497 0 004.54 1.53h119.863c4.366 0 7.918 3.56 7.918 7.935v73.646c0 4.375-3.552 7.935-7.918 7.935h-95.304c-4.143 0-7.5 3.358-7.5 7.5s3.357 7.5 7.5 7.5h95.304C501.719 512 512 501.711 512 489.065V415.42c0-12.646-10.281-22.935-22.918-22.935z"/><path d="M368.444 477.057h99.94c4.143 0 7.5-3.358 7.5-7.5s-3.357-7.5-7.5-7.5h-99.94a7.5 7.5 0 000 15zm0-34.013h89.948c4.143 0 7.5-3.358 7.5-7.5s-3.357-7.5-7.5-7.5h-89.948a7.5 7.5 0 000 15zM119.557 178.657a7.499 7.499 0 0012.326 0l16.042-23.129h26.577c13.751 0 24.938-11.191 24.938-24.946V24.947C199.44 11.191 188.253 0 174.502 0H79.396c-4.143 0-7.5 3.358-7.5 7.5s3.357 7.5 7.5 7.5h95.105c5.48 0 9.938 4.462 9.938 9.947v105.635c0 5.484-4.458 9.946-9.938 9.946h-30.503a7.499 7.499 0 00-6.163 3.226l-12.116 17.469-12.117-17.469a7.499 7.499 0 00-6.163-3.226h-82.5c-5.48 0-9.939-4.462-9.939-9.946V24.947C15 19.462 19.459 15 24.939 15h19.913c4.143 0 7.5-3.358 7.5-7.5S48.995 0 44.853 0H24.939C11.188 0 0 11.191 0 24.947v105.635c0 13.755 11.188 24.946 24.939 24.946h78.574z"/><path d="M94.416 112.264a7.502 7.502 0 0010.61 0l28.723-28.736c9.72-9.723 9.728-25.535.018-35.248-4.7-4.703-10.951-7.292-17.603-7.292h-.02c-6.104.004-11.876 2.19-16.423 6.188-4.547-3.998-10.317-6.184-16.424-6.188h-.019c-6.651 0-12.902 2.589-17.604 7.292-9.708 9.713-9.7 25.525.019 35.248zM76.283 58.885a9.821 9.821 0 016.995-2.897h.008a9.873 9.873 0 017.021 2.915l4.108 4.11a7.5 7.5 0 0010.61 0l4.108-4.11a9.873 9.873 0 017.021-2.915h.007a9.823 9.823 0 016.995 2.896l.001.001c3.863 3.865 3.855 10.162-.02 14.038l-23.416 23.43-23.419-23.429c-3.874-3.875-3.883-10.174-.019-14.039z"/></svg>