<svg height="512" width="512" xmlns="http://www.w3.org/2000/svg"><path d="M450.72 190.92c-.14-4.9-.33-9.59-.59-15.39-.91-20.73-4.26-34.98-9.06-47.33-4.96-13.11-12.58-24.84-22.56-34.6-9.75-9.91-21.56-17.61-34.52-22.48-5.55-2.14-11.45-4-18.13-5.48-8.26-1.83-17.72-3.09-29.19-3.59-20.88-.99-27.51-1.22-80.46-1.22-52.96 0-59.59.23-80.39 1.14-20.73.92-34.98 4.27-47.32 9.07-13.11 4.95-24.84 12.58-34.6 22.56-9.9 9.76-17.6 21.57-22.48 34.53-4.8 12.42-8.15 26.6-9.06 47.33-.27 5.82-.49 10.54-.66 15.46-.44 12.72-.56 26.82-.56 65.02 0 38.21.12 52.31.53 65.01.16 4.9.36 9.6.61 15.4.91 20.73 4.27 34.98 9.07 47.33 4.95 13.11 12.65 24.85 22.55 34.6 9.76 9.91 21.57 17.61 34.52 22.49 12.42 4.8 26.59 8.15 47.32 9.07 15.87.69 23.49.99 49.73 1.09 8.15.04 18.11.05 30.66.05 7.89 0 14.75-.01 20.78-.02 34.47-.06 41.91-.35 59.61-1.12 11.33-.5 20.72-1.73 28.93-3.53 6.8-1.48 12.79-3.36 18.39-5.54a99.78 99.78 0 0057.07-57.09c4.8-12.42 8.16-26.6 9.07-47.33.25-5.8.45-10.5.61-15.4.41-12.7.53-26.8.53-65.01 0-38.22-.04-52.32-.4-65.02z" fill="#4dd4f7"/><path d="M451.125 255.935c0 38.21-.12 52.31-.53 65.01-.16 4.9-.36 9.6-.61 15.4-.91 20.73-4.27 34.91-9.07 47.33a99.78 99.78 0 01-57.07 57.09c-5.6 2.18-11.59 4.06-18.39 5.54a103.701 103.701 0 0055.06-57.58c4.99-12.91 8.48-27.65 9.43-49.2.95-21.63 1.18-28.52 1.18-83.59 0-55.06-.08-61.95-1.03-83.58-.95-21.55-4.43-36.37-9.42-49.21-5.15-13.62-13.07-25.82-23.45-35.97a100.043 100.043 0 00-31.36-21.54 124.75 124.75 0 0118.13 5.48c12.96 4.87 24.77 12.57 34.52 22.48 9.98 9.76 17.6 21.49 22.56 34.6 4.8 12.35 8.15 26.6 9.06 47.33.26 5.8.45 10.49.59 15.39.36 12.7.4 26.8.4 65.02z" fill="#00c2f3"/><path d="M191.941 24.942v105.59c0 9.64-7.81 17.44-17.44 17.44h-30.502l-18.28 26.35-18.28-26.35H24.942c-9.64 0-17.44-7.8-17.44-17.44V24.942c0-9.63 7.8-17.44 17.44-17.44h149.559c9.63 0 17.44 7.81 17.44 17.44z" fill="#fbdf63"/><path d="M191.941 24.942v105.59c0 9.64-7.81 17.44-17.44 17.44h-20c9.63 0 17.44-7.8 17.44-17.44V24.942c0-9.63-7.81-17.44-17.44-17.44h20c9.63 0 17.44 7.81 17.44 17.44z" fill="#ffa402"/><path d="M128.463 53.567c-6.797-6.798-17.826-6.789-24.634.018l-4.109 4.109-4.109-4.109c-6.808-6.808-17.837-6.816-24.634-.018-6.797 6.797-6.789 17.826.018 24.634l28.724 28.724 28.724-28.724c6.809-6.808 6.818-17.837.02-24.634z" fill="#ff6b81"/><path d="M504.5 415.415v73.65c0 8.52-6.9 15.43-15.41 15.43H343.051c-8.52 0-15.42-6.91-15.42-15.43v-120.69l41.59 31.62H489.09c8.51 0 15.41 6.9 15.41 15.42z" fill="#d9f0f4"/><path d="M504.5 415.415v73.65c0 8.52-6.9 15.43-15.41 15.43h-20c8.51 0 15.41-6.91 15.41-15.43v-73.65c0-8.52-6.9-15.42-15.41-15.42h20c8.51 0 15.41 6.9 15.41 15.42z" fill="#bae1e5"/><path d="M329.78 249.28l-17.15 42.87h-35.72v158.81c-6.03.01-12.89.02-20.78.02-12.55 0-22.51-.01-30.66-.05V292.15h-44.29v-42.87h44.29v-44.3c0-28.41 23.03-51.44 51.44-51.44h44.3v42.87h-27.15c-9.46 0-17.15-.89-17.15 8.57v44.3z" fill="#fff"/><path d="M226.465 68.37h.028c7.973-.029 17.64-.042 29.718-.042 52.573 0 59.452.231 80.137 1.214 17.782.784 31.643 3.428 45.006 8.596 11.862 4.465 22.864 11.632 31.816 20.726l.103.103c9.187 8.978 16.179 19.706 20.808 31.954 5.135 13.208 7.776 27.069 8.564 44.944a7.5 7.5 0 0014.986-.66c-.863-19.584-3.814-34.918-9.543-49.653-5.373-14.218-13.541-26.755-24.277-37.262-10.458-10.608-23.31-18.973-37.107-24.166-14.886-5.757-30.212-8.708-49.668-9.565-20.948-.995-27.907-1.229-80.823-1.229-12.101 0-21.785.013-29.773.042a7.498 7.498 0 00.025 14.998zm224.566 133.064h-.063a7.5 7.5 0 00-7.438 7.562c.084 10.176.099 23.793.099 46.947 0 52.234-.217 59.161-1.136 80.078-.533 12.087-1.958 22.505-4.359 31.848a7.5 7.5 0 007.269 9.368 7.504 7.504 0 007.259-5.636c2.662-10.36 4.237-21.782 4.816-34.921.931-21.185 1.15-28.186 1.15-80.737 0-23.195-.016-36.844-.1-47.07a7.498 7.498 0 00-7.497-7.439zm38.052 191.051H371.747l-39.573-30.098a7.498 7.498 0 00-12.04 5.97v120.708c0 12.646 10.281 22.935 22.917 22.935h16.233c4.142 0 7.5-3.357 7.5-7.5s-3.358-7.5-7.5-7.5h-16.233c-4.366 0-7.917-3.56-7.917-7.935V383.484l29.545 22.471a7.497 7.497 0 004.54 1.53h119.863c4.366 0 7.917 3.56 7.917 7.935v73.646c0 4.375-3.552 7.935-7.917 7.935h-95.304c-4.142 0-7.5 3.357-7.5 7.5s3.358 7.5 7.5 7.5h95.304C501.719 512 512 501.712 512 489.065V415.42c0-12.647-10.281-22.935-22.917-22.935z"/><path d="M368.445 477.057h99.94c4.142 0 7.5-3.357 7.5-7.5s-3.358-7.5-7.5-7.5h-99.94c-4.142 0-7.5 3.357-7.5 7.5s3.358 7.5 7.5 7.5zm0-34.013h89.947c4.142 0 7.5-3.357 7.5-7.5s-3.358-7.5-7.5-7.5h-89.947c-4.142 0-7.5 3.357-7.5 7.5s3.358 7.5 7.5 7.5zM119.557 178.657a7.499 7.499 0 0012.326 0l16.042-23.129h26.577c13.751 0 24.939-11.19 24.939-24.946V24.946C199.441 11.19 188.253 0 174.501 0H79.397c-4.142 0-7.5 3.357-7.5 7.5s3.358 7.5 7.5 7.5h95.104c5.48 0 9.939 4.462 9.939 9.946v105.636c0 5.484-4.459 9.946-9.939 9.946H144a7.5 7.5 0 00-6.163 3.226l-12.117 17.47-12.117-17.47a7.499 7.499 0 00-6.163-3.226h-82.5c-5.48 0-9.939-4.462-9.939-9.946V24.946C15 19.462 19.459 15 24.939 15h19.913c4.142 0 7.5-3.357 7.5-7.5S48.995 0 44.853 0H24.939C11.188 0 0 11.19 0 24.946v105.636c0 13.756 11.188 24.946 24.939 24.946h78.575z"/><path d="M94.417 112.264a7.498 7.498 0 0010.608 0l28.724-28.735c9.718-9.723 9.727-25.535.018-35.247-4.702-4.704-10.952-7.293-17.604-7.293h-.019c-6.105.005-11.877 2.191-16.424 6.189-4.546-3.998-10.318-6.185-16.423-6.189h-.019c-6.651 0-12.903 2.59-17.604 7.292-9.709 9.713-9.701 25.524.018 35.248zM76.284 58.885a9.823 9.823 0 016.995-2.896h.008a9.871 9.871 0 017.021 2.916l4.109 4.11a7.501 7.501 0 0010.609-.001l4.108-4.11a9.875 9.875 0 017.021-2.915h.008a9.827 9.827 0 016.995 2.896c3.864 3.866 3.855 10.164-.018 14.04L99.721 96.354 76.302 72.925c-3.874-3.876-3.883-10.174-.018-14.04zm259.708 186.189a7.499 7.499 0 00-6.21-3.295h-45.368v-36.794c0-.322.016-.574.036-.766 1.521-.365 4.939-.337 7.296-.32.758.006 1.53.012 2.315.012h27.147a7.5 7.5 0 007.5-7.5v-42.867a7.5 7.5 0 00-7.5-7.5h-44.294c-32.5 0-58.941 26.441-58.941 58.941v36.794h-36.794a7.5 7.5 0 00-7.5 7.5v42.868a7.5 7.5 0 007.5 7.5h36.794v27.043c0 4.143 3.358 7.5 7.5 7.5s7.5-3.357 7.5-7.5v-34.543a7.5 7.5 0 00-7.5-7.5h-36.794v-27.868h36.794a7.5 7.5 0 007.5-7.5v-44.294c0-24.229 19.712-43.941 43.941-43.941h36.794v27.867h-19.647c-.745 0-1.479-.006-2.199-.012-6.601-.044-13.441-.104-18.211 4.629-2.812 2.79-4.237 6.645-4.237 11.457v44.294a7.5 7.5 0 007.5 7.5h41.79l-11.147 27.868h-30.643a7.5 7.5 0 00-7.5 7.5v151.326a13364.665 13364.665 0 01-36.442-.015v-82.101c0-4.143-3.358-7.5-7.5-7.5s-7.5 3.357-7.5 7.5v82.04c-19.968-.128-27.707-.428-41.895-1.054-17.78-.783-31.642-3.427-45.009-8.594-11.863-4.467-22.865-11.634-31.816-20.728l-.082-.082c-9.24-9.101-16.239-19.836-20.826-31.975-5.137-13.214-7.779-27.075-8.567-44.943-.919-20.918-1.136-27.845-1.136-80.079 0-46.459.186-57.268.873-72.791a7.5 7.5 0 00-7.161-7.824c-4.139-.188-7.641 3.024-7.824 7.162-.698 15.783-.887 26.704-.887 73.453 0 52.552.22 59.553 1.15 80.738.863 19.578 3.815 34.912 9.546 49.653 5.326 14.097 13.49 26.63 24.266 37.254 10.459 10.611 23.314 18.979 37.117 24.175 14.891 5.757 30.217 8.707 49.695 9.566 21.119.931 28.107 1.15 80.72 1.15 18.54 0 30.37-.027 39.558-.091a7.501 7.501 0 00-.051-15h-.053c-3.312.023-6.979.041-11.177.055V299.647h28.221a7.498 7.498 0 006.963-4.715l17.147-42.868a7.496 7.496 0 00-.752-6.99z"/></svg>