<svg height="512" viewBox="0 0 512.001 512.001" width="512" xmlns="http://www.w3.org/2000/svg"><path d="M453.638 154.651c.2 4.37.29 8.77.29 13.18 0 134.74-102.57 290.13-290.12 290.13-57.59 0-111.18-16.88-156.31-45.81 7.98.94 16.11 1.41 24.33 1.41 47.78 0 91.74-16.29 126.64-43.64-44.63-.83-82.27-30.31-95.25-70.83 6.21 1.2 12.6 1.84 19.16 1.84 9.31 0 18.32-1.25 26.89-3.58-46.66-9.35-81.81-50.58-81.81-99.96 0-.46 0-.88.02-1.3a101.303 101.303 0 0046.18 12.75c-27.37-18.27-45.38-49.5-45.38-84.88 0-18.68 5.05-36.18 13.81-51.25 50.29 61.7 125.44 102.27 210.18 106.54-1.75-7.47-2.64-15.25-2.64-23.26 0-56.28 45.66-101.95 101.97-101.95 8.71 0 17.17 1.09 25.25 3.16h.01c19.12 4.86 36.1 15.13 49.18 29.06a204.684 204.684 0 0064.74-24.75c-7.62 23.8-23.78 43.77-44.83 56.4 20.62-2.47 40.28-7.94 58.55-16.06a207.29 207.29 0 01-50.86 52.8z" fill="#4dd4f7"/><path d="M453.638 154.651c.2 4.37.29 8.77.29 13.18 0 134.74-102.57 290.13-290.12 290.13-57.59 0-111.18-16.88-156.31-45.81 292.29 145.53 546.44-199.01 369.36-354.95 19.12 4.86 36.1 15.13 49.18 29.06a204.684 204.684 0 0064.74-24.75c-7.62 23.8-23.78 43.77-44.83 56.4 20.62-2.47 40.28-7.94 58.55-16.06a207.29 207.29 0 01-50.86 52.8z" fill="#00c2f3"/><path d="M261.366 32.358c0 13.72-11.1 24.84-24.8 24.84h-16.642l-19.12 26.4-19.13-26.4H97.38c-13.69 0-24.8-11.12-24.8-24.84 0-13.71 11.11-24.83 24.8-24.83h139.186c13.7 0 24.8 11.12 24.8 24.83z" fill="#ff6b81"/><path d="M261.366 32.358c0 13.72-11.1 24.84-24.8 24.84h-20c13.7 0 24.8-11.12 24.8-24.84 0-13.71-11.1-24.83-24.8-24.83h20c13.7 0 24.8 11.12 24.8 24.83z" fill="#ed2061"/><path d="M504.501 479.597c0-13.72-11.1-24.84-24.8-24.84h-16.642l-19.12-26.4-19.13 26.4h-84.294c-13.69 0-24.8 11.12-24.8 24.84 0 13.71 11.11 24.83 24.8 24.83h139.186c13.7 0 24.8-11.12 24.8-24.83z" fill="#fbdf63"/><path d="M504.501 479.597c0-13.72-11.1-24.84-24.8-24.84h-20c13.7 0 24.8 11.12 24.8 24.84 0 13.71-11.1 24.83-24.8 24.83h20c13.7 0 24.8-11.12 24.8-24.83z" fill="#ffa402"/><path d="M243.15 171.123c-38.985-3.245-76.135-14.318-110.563-32.972a7.5 7.5 0 00-7.146 13.188c39.198 21.238 81.742 33.147 126.451 35.398a7.498 7.498 0 007.679-9.201c-1.623-6.931-2.446-14.178-2.446-21.542 0-39.329 24.779-74.935 61.66-88.6a7.5 7.5 0 004.427-9.639 7.499 7.499 0 00-9.639-4.427c-42.735 15.834-71.448 57.092-71.448 102.665a111.95 111.95 0 001.025 15.13zM351.6 61.541c26.021 0 51.157 10.879 68.965 29.849a7.499 7.499 0 006.92 2.225 211.52 211.52 0 0047.671-15.439c-7.974 13.56-19.3 25.041-33.07 33.3-3.034 1.82-4.384 5.513-3.238 8.86s4.471 5.443 7.988 5.019a212.98 212.98 0 0036.033-7.498 198.921 198.921 0 01-33.626 30.72 7.5 7.5 0 00-3.098 6.416c.186 4.125.28 8.446.28 12.843 0 20.206-2.369 40.858-7.04 61.384a7.5 7.5 0 007.319 9.166 7.501 7.501 0 007.306-5.837c4.919-21.617 7.414-43.389 7.414-64.713 0-3.216-.048-6.396-.144-9.499 19.357-14.553 35.982-32.137 49.457-52.318a7.499 7.499 0 00-9.284-11.018 193.811 193.811 0 01-27.564 9.83 109.12 109.12 0 0024.035-41.035 7.5 7.5 0 00-10.967-8.739 196.679 196.679 0 01-58.431 23.022c-20.406-20.093-48.201-31.537-76.927-31.537a7.5 7.5 0 10.001 14.999z"/><path d="M444.761 264.94a7.5 7.5 0 00-14.18-4.892c-18.494 53.615-50.933 99.653-93.809 133.14-23.144 18.075-48.995 32.11-76.833 41.715-29.913 10.32-62.258 15.553-96.136 15.553-.08 0-.16.001-.24.004-43.711-.038-86.495-10.161-125.334-29.487 45.733-1.327 88.786-16.87 124.87-45.152a7.498 7.498 0 00-4.488-13.401c-36.336-.673-68.649-22.016-83.789-54.253 12.331.873 24.611-.37 36.417-3.583a7.499 7.499 0 00-.497-14.591c-40.313-8.072-70.479-41.557-75.15-81.709 12.006 4.896 24.876 7.652 37.834 8.051a7.501 7.501 0 004.395-13.735c-26.324-17.569-42.04-46.966-42.04-78.638a94.656 94.656 0 017.883-37.792 298.745 298.745 0 0053.976 48.068 7.5 7.5 0 008.548-12.326A283.837 283.837 0 0147.9 67.97a7.5 7.5 0 00-12.299.97 109.648 109.648 0 00-14.821 55.022c0 27.367 10.13 53.271 27.933 73.116a93.926 93.926 0 01-17.59-7.545 7.502 7.502 0 00-11.143 6.281 42.515 42.515 0 00-.021 1.574c0 40.589 22.512 76.997 56.605 95.863a94.78 94.78 0 01-11.936-1.521 7.501 7.501 0 00-8.558 9.654c12.196 38.062 43.905 65.893 82.062 73.782-31.684 20.273-68.07 30.9-106.309 30.9-7.904 0-15.792-.458-23.447-1.359a7.5 7.5 0 00-4.925 13.763c47.963 30.742 103.412 46.991 160.354 46.991.083 0 .165-.001.246-.004 68.467-.051 131.38-20.95 181.952-60.446 45.168-35.275 79.318-83.711 98.758-140.071zM97.379 64.716h80.472l16.877 23.325a7.501 7.501 0 0012.152 0l16.877-23.325h12.81c17.81 0 32.298-14.516 32.298-32.357C268.866 14.516 254.377 0 236.567 0H97.379C79.569 0 65.08 14.516 65.08 32.358s14.489 32.358 32.299 32.358zm0-49.716h139.188c9.539 0 17.298 7.787 17.298 17.358s-7.76 17.357-17.298 17.357h-16.641a7.497 7.497 0 00-6.076 3.104L200.804 70.85l-13.047-18.031a7.5 7.5 0 00-6.076-3.104H97.379c-9.539 0-17.298-7.787-17.298-17.357C80.08 22.787 87.84 15 97.379 15zm382.324 432.285h-12.81l-16.877-23.325a7.501 7.501 0 00-12.152 0l-16.877 23.325h-80.472c-17.81 0-32.299 14.516-32.299 32.357 0 17.842 14.489 32.358 32.299 32.358h19.284a7.5 7.5 0 000-15h-19.284c-9.539 0-17.299-7.787-17.299-17.358s7.76-17.357 17.299-17.357h84.302a7.497 7.497 0 006.076-3.104l13.046-18.031 13.047 18.031a7.5 7.5 0 006.076 3.104h16.641c9.539 0 17.298 7.787 17.298 17.357 0 9.571-7.76 17.358-17.298 17.358h-85.12a7.5 7.5 0 000 15h85.12c17.81 0 32.298-14.516 32.298-32.358 0-17.841-14.489-32.357-32.298-32.357z"/><path d="M239.19 408.822c-17.632 5.234-36.629 8.733-56.463 10.399a7.5 7.5 0 101.255 14.947c20.854-1.751 40.864-5.441 59.477-10.966a7.501 7.501 0 00-4.269-14.38zm181.711-222.329a7.502 7.502 0 00-8.25 6.663c-.04.368-4.171 37.354-23.886 80.889-11.506 25.407-26.002 48.058-43.084 67.324-21.254 23.971-46.628 42.769-75.419 55.872a7.5 7.5 0 00-3.72 9.933 7.501 7.501 0 006.831 4.396 7.463 7.463 0 003.102-.676c30.81-14.021 57.94-34.144 80.64-59.809 18.097-20.462 33.415-44.458 45.528-71.323 20.588-45.659 24.758-83.439 24.926-85.025a7.503 7.503 0 00-6.668-8.244zm-66.951-55.527c8.989 0 17.269-4.517 22.15-12.082a7.5 7.5 0 10-12.605-8.133c-2.106 3.265-5.675 5.214-9.546 5.214s-7.44-1.949-9.546-5.214a7.5 7.5 0 10-12.605 8.133c4.883 7.566 13.163 12.082 22.152 12.082z"/></svg>